0
SECTION
2
HEADER
0
ENDSEC
0
SECTION
2
TABLES
0
ENDSEC
0
SECTION
2
BLOCKS
0
ENDSEC
0
SECTION
2
ENTITIES
0
LINE
8
0
10
0.0
20
0.0
30
0.0
11
11.0
21
0.0
31
0.0
0
LINE
8
0
10
11.0
20
0.0
30
0.0
11
-8.200172356962092
21
3.7090663671758093
31
0.0
0
LINE
8
0
10
-8.200172356962092
20
3.7090663671758093
30
0.0
11
10.461621679246688
21
3.3991869381244215
31
0.0
0
LINE
8
0
10
10.461621679246688
20
3.3991869381244215
30
0.0
11
0.0
21
0.0
31
0.0
0
LINE
8
0
10
0.0
20
0.0
30
0.0
11
10.461621679246688
21
3.3991869381244215
31
0.0
0
LINE
8
0
10
10.461621679246688
20
3.3991869381244215
30
0.0
11
-8.94499189555406
21
0.9935391227687916
31
0.0
0
LINE
8
0
10
-8.94499189555406
20
0.9935391227687916
30
0.0
11
8.899186938124423
21
6.465637775217204
31
0.0
0
LINE
8
0
10
8.899186938124423
20
6.465637775217204
30
0.0
11
0.0
21
0.0
31
0.0
0
LINE
8
0
10
0.0
20
0.0
30
0.0
11
8.899186938124423
21
6.465637775217204
31
0.0
0
LINE
8
0
10
8.899186938124423
20
6.465637775217204
30
0.0
11
-8.81421330398596
21
-1.8192426533689492
31
0.0
0
LINE
8
0
10
-8.81421330398596
20
-1.8192426533689492
30
0.0
11
6.465637775217204
21
8.899186938124423
31
0.0
0
LINE
8
0
10
6.465637775217204
20
8.899186938124423
30
0.0
11
0.0
21
0.0
31
0.0
0
LINE
8
0
10
0.0
20
0.0
30
0.0
11
6.465637775217204
21
8.899186938124423
31
0.0
0
LINE
8
0
10
6.465637775217204
20
8.899186938124423
30
0.0
11
-7.820638101988506
21
-4.453944283186041
31
0.0
0
LINE
8
0
10
-7.820638101988506
20
-4.453944283186041
30
0.0
11
3.399186938124422
21
10.461621679246688
31
0.0
0
LINE
8
0
10
3.399186938124422
20
10.461621679246688
30
0.0
11
0.0
21
0.0
31
0.0
0
LINE
8
0
10
0.0
20
0.0
30
0.0
11
3.399186938124422
21
10.461621679246688
31
0.0
0
LINE
8
0
10
3.399186938124422
20
10.461621679246688
30
0.0
11
-6.061524352978701
21
-6.652662814110313
31
0.0
0
LINE
8
0
10
-6.061524352978701
20
-6.652662814110313
30
0.0
11
6.735557395310443E-16
21
11.0
31
0.0
0
LINE
8
0
10
6.735557395310443E-16
20
11.0
30
0.0
11
0.0
21
0.0
31
0.0
0
LINE
8
0
10
0.0
20
0.0
30
0.0
11
6.735557395310443E-16
21
11.0
31
0.0
0
LINE
8
0
10
6.735557395310443E-16
20
11.0
30
0.0
11
-3.7090663671758097
21
-8.200172356962092
31
0.0
0
LINE
8
0
10
-3.7090663671758097
20
-8.200172356962092
30
0.0
11
-3.3991869381244206
21
10.46162167924669
31
0.0
0
LINE
8
0
10
-3.3991869381244206
20
10.46162167924669
30
0.0
11
0.0
21
0.0
31
0.0
0
LINE
8
0
10
0.0
20
0.0
30
0.0
11
-3.3991869381244206
21
10.46162167924669
31
0.0
0
LINE
8
0
10
-3.3991869381244206
20
10.46162167924669
30
0.0
11
-0.9935391227687922
21
-8.94499189555406
31
0.0
0
LINE
8
0
10
-0.9935391227687922
20
-8.94499189555406
30
0.0
11
-6.465637775217203
21
8.899186938124423
31
0.0
0
LINE
8
0
10
-6.465637775217203
20
8.899186938124423
30
0.0
11
0.0
21
0.0
31
0.0
0
LINE
8
0
10
0.0
20
0.0
30
0.0
11
-6.465637775217203
21
8.899186938124423
31
0.0
0
LINE
8
0
10
-6.465637775217203
20
8.899186938124423
30
0.0
11
1.8192426533689487
21
-8.81421330398596
31
0.0
0
LINE
8
0
10
1.8192426533689487
20
-8.81421330398596
30
0.0
11
-8.899186938124421
21
6.465637775217206
31
0.0
0
LINE
8
0
10
-8.899186938124421
20
6.465637775217206
30
0.0
11
0.0
21
0.0
31
0.0
0
LINE
8
0
10
0.0
20
0.0
30
0.0
11
-8.899186938124421
21
6.465637775217206
31
0.0
0
LINE
8
0
10
-8.899186938124421
20
6.465637775217206
30
0.0
11
4.453944283186041
21
-7.820638101988506
31
0.0
0
LINE
8
0
10
4.453944283186041
20
-7.820638101988506
30
0.0
11
-10.461621679246688
21
3.3991869381244224
31
0.0
0
LINE
8
0
10
-10.461621679246688
20
3.3991869381244224
30
0.0
11
0.0
21
0.0
31
0.0
0
LINE
8
0
10
0.0
20
0.0
30
0.0
11
-10.461621679246688
21
3.3991869381244224
31
0.0
0
LINE
8
0
10
-10.461621679246688
20
3.3991869381244224
30
0.0
11
6.652662814110313
21
-6.061524352978702
31
0.0
0
LINE
8
0
10
6.652662814110313
20
-6.061524352978702
30
0.0
11
-11.0
21
1.3471114790620886E-15
31
0.0
0
LINE
8
0
10
-11.0
20
1.3471114790620886E-15
30
0.0
11
0.0
21
0.0
31
0.0
0
LINE
8
0
10
0.0
20
0.0
30
0.0
11
-11.0
21
1.3471114790620886E-15
31
0.0
0
LINE
8
0
10
-11.0
20
1.3471114790620886E-15
30
0.0
11
8.200172356962092
21
-3.70906636717581
31
0.0
0
LINE
8
0
10
8.200172356962092
20
-3.70906636717581
30
0.0
11
-10.46162167924669
21
-3.39918693812442
31
0.0
0
LINE
8
0
10
-10.46162167924669
20
-3.39918693812442
30
0.0
11
0.0
21
0.0
31
0.0
0
LINE
8
0
10
0.0
20
0.0
30
0.0
11
-10.46162167924669
21
-3.39918693812442
31
0.0
0
LINE
8
0
10
-10.46162167924669
20
-3.39918693812442
30
0.0
11
8.94499189555406
21
-0.9935391227687927
31
0.0
0
LINE
8
0
10
8.94499189555406
20
-0.9935391227687927
30
0.0
11
-8.899186938124423
21
-6.465637775217203
31
0.0
0
LINE
8
0
10
-8.899186938124423
20
-6.465637775217203
30
0.0
11
0.0
21
0.0
31
0.0
0
LINE
8
0
10
0.0
20
0.0
30
0.0
11
-8.899186938124423
21
-6.465637775217203
31
0.0
0
LINE
8
0
10
-8.899186938124423
20
-6.465637775217203
30
0.0
11
8.81421330398596
21
1.8192426533689483
31
0.0
0
LINE
8
0
10
8.81421330398596
20
1.8192426533689483
30
0.0
11
-6.465637775217206
21
-8.899186938124421
31
0.0
0
LINE
8
0
10
-6.465637775217206
20
-8.899186938124421
30
0.0
11
0.0
21
0.0
31
0.0
0
LINE
8
0
10
0.0
20
0.0
30
0.0
11
-6.465637775217206
21
-8.899186938124421
31
0.0
0
LINE
8
0
10
-6.465637775217206
20
-8.899186938124421
30
0.0
11
7.820638101988506
21
4.45394428318604
31
0.0
0
LINE
8
0
10
7.820638101988506
20
4.45394428318604
30
0.0
11
-3.3991869381244233
21
-10.461621679246688
31
0.0
0
LINE
8
0
10
-3.3991869381244233
20
-10.461621679246688
30
0.0
11
0.0
21
0.0
31
0.0
0
LINE
8
0
10
0.0
20
0.0
30
0.0
11
-3.3991869381244233
21
-10.461621679246688
31
0.0
0
LINE
8
0
10
-3.3991869381244233
20
-10.461621679246688
30
0.0
11
6.061524352978702
21
6.652662814110312
31
0.0
0
LINE
8
0
10
6.061524352978702
20
6.652662814110312
30
0.0
11
-2.0206672185931327E-15
21
-11.0
31
0.0
0
LINE
8
0
10
-2.0206672185931327E-15
20
-11.0
30
0.0
11
0.0
21
0.0
31
0.0
0
LINE
8
0
10
0.0
20
0.0
30
0.0
11
-2.0206672185931327E-15
21
-11.0
31
0.0
0
LINE
8
0
10
-2.0206672185931327E-15
20
-11.0
30
0.0
11
3.7090663671758106
21
8.200172356962092
31
0.0
0
LINE
8
0
10
3.7090663671758106
20
8.200172356962092
30
0.0
11
3.3991869381244193
21
-10.46162167924669
31
0.0
0
LINE
8
0
10
3.3991869381244193
20
-10.46162167924669
30
0.0
11
0.0
21
0.0
31
0.0
0
LINE
8
0
10
0.0
20
0.0
30
0.0
11
3.3991869381244193
21
-10.46162167924669
31
0.0
0
LINE
8
0
10
3.3991869381244193
20
-10.46162167924669
30
0.0
11
0.9935391227687933
21
8.94499189555406
31
0.0
0
LINE
8
0
10
0.9935391227687933
20
8.94499189555406
30
0.0
11
6.465637775217202
21
-8.899186938124423
31
0.0
0
LINE
8
0
10
6.465637775217202
20
-8.899186938124423
30
0.0
11
0.0
21
0.0
31
0.0
0
LINE
8
0
10
0.0
20
0.0
30
0.0
11
6.465637775217202
21
-8.899186938124423
31
0.0
0
LINE
8
0
10
6.465637775217202
20
-8.899186938124423
30
0.0
11
-1.8192426533689479
21
8.81421330398596
31
0.0
0
LINE
8
0
10
-1.8192426533689479
20
8.81421330398596
30
0.0
11
8.899186938124421
21
-6.465637775217207
31
0.0
0
LINE
8
0
10
8.899186938124421
20
-6.465637775217207
30
0.0
11
0.0
21
0.0
31
0.0
0
LINE
8
0
10
0.0
20
0.0
30
0.0
11
8.899186938124421
21
-6.465637775217207
31
0.0
0
LINE
8
0
10
8.899186938124421
20
-6.465637775217207
30
0.0
11
-4.453944283186039
21
7.820638101988506
31
0.0
0
LINE
8
0
10
-4.453944283186039
20
7.820638101988506
30
0.0
11
10.461621679246688
21
-3.3991869381244237
31
0.0
0
LINE
8
0
10
10.461621679246688
20
-3.3991869381244237
30
0.0
11
0.0
21
0.0
31
0.0
0
LINE
8
0
10
0.0
20
0.0
30
0.0
11
10.461621679246688
21
-3.3991869381244237
31
0.0
0
LINE
8
0
10
10.461621679246688
20
-3.3991869381244237
30
0.0
11
-6.652662814110312
21
6.061524352978702
31
0.0
0
LINE
8
0
10
-6.652662814110312
20
6.061524352978702
30
0.0
11
11.0
21
-2.6942229581241772E-15
31
0.0
0
LINE
8
0
10
11.0
20
-2.6942229581241772E-15
30
0.0
11
0.0
21
0.0
31
0.0
0
LINE
8
0
10
25.0
20
0.0
30
0.0
11
33.25
21
0.0
31
0.0
0
LINE
8
0
10
33.25
20
0.0
30
0.0
11
18.849870732278433
21
2.781799775381857
31
0.0
0
LINE
8
0
10
18.849870732278433
20
2.781799775381857
30
0.0
11
32.84621625943502
21
2.549390203593316
31
0.0
0
LINE
8
0
10
32.84621625943502
20
2.549390203593316
30
0.0
11
25.0
21
0.0
31
0.0
0
LINE
8
0
10
25.0
20
0.0
30
0.0
11
32.84621625943502
21
2.549390203593316
31
0.0
0
LINE
8
0
10
32.84621625943502
20
2.549390203593316
30
0.0
11
18.291256078334456
21
0.7451543420765937
31
0.0
0
LINE
8
0
10
18.291256078334456
20
0.7451543420765937
30
0.0
11
31.674390203593315
21
4.849228331412903
31
0.0
0
LINE
8
0
10
31.674390203593315
20
4.849228331412903
30
0.0
11
25.0
21
0.0
31
0.0
0
LINE
8
0
10
25.0
20
0.0
30
0.0
11
31.674390203593315
21
4.849228331412903
31
0.0
0
LINE
8
0
10
31.674390203593315
20
4.849228331412903
30
0.0
11
18.38934002201053
21
-1.364431990026712
31
0.0
0
LINE
8
0
10
18.38934002201053
20
-1.364431990026712
30
0.0
11
29.849228331412903
21
6.674390203593316
31
0.0
0
LINE
8
0
10
29.849228331412903
20
6.674390203593316
30
0.0
11
25.0
21
0.0
31
0.0
0
LINE
8
0
10
25.0
20
0.0
30
0.0
11
29.849228331412903
21
6.674390203593316
31
0.0
0
LINE
8
0
10
29.849228331412903
20
6.674390203593316
30
0.0
11
19.13452142350862
21
-3.340458212389531
31
0.0
0
LINE
8
0
10
19.13452142350862
20
-3.340458212389531
30
0.0
11
27.549390203593315
21
7.846216259435017
31
0.0
0
LINE
8
0
10
27.549390203593315
20
7.846216259435017
30
0.0
11
25.0
21
0.0
31
0.0
0
LINE
8
0
10
25.0
20
0.0
30
0.0
11
27.549390203593315
21
7.846216259435017
31
0.0
0
LINE
8
0
10
27.549390203593315
20
7.846216259435017
30
0.0
11
20.453856735265973
21
-4.989497110582734
31
0.0
0
LINE
8
0
10
20.453856735265973
20
-4.989497110582734
30
0.0
11
25.0
21
8.25
31
0.0
0
LINE
8
0
10
25.0
20
8.25
30
0.0
11
25.0
21
0.0
31
0.0
0
LINE
8
0
10
25.0
20
0.0
30
0.0
11
25.0
21
8.25
31
0.0
0
LINE
8
0
10
25.0
20
8.25
30
0.0
11
22.218200224618144
21
-6.150129267721569
31
0.0
0
LINE
8
0
10
22.218200224618144
20
-6.150129267721569
30
0.0
11
22.450609796406685
21
7.8462162594350175
31
0.0
0
LINE
8
0
10
22.450609796406685
20
7.8462162594350175
30
0.0
11
25.0
21
0.0
31
0.0
0
LINE
8
0
10
25.0
20
0.0
30
0.0
11
22.450609796406685
21
7.8462162594350175
31
0.0
0
LINE
8
0
10
22.450609796406685
20
7.8462162594350175
30
0.0
11
24.254845657923404
21
-6.708743921665545
31
0.0
0
LINE
8
0
10
24.254845657923404
20
-6.708743921665545
30
0.0
11
20.150771668587097
21
6.674390203593316
31
0.0
0
LINE
8
0
10
20.150771668587097
20
6.674390203593316
30
0.0
11
25.0
21
0.0
31
0.0
0
LINE
8
0
10
25.0
20
0.0
30
0.0
11
20.150771668587097
21
6.674390203593316
31
0.0
0
LINE
8
0
10
20.150771668587097
20
6.674390203593316
30
0.0
11
26.364431990026713
21
-6.610659977989471
31
0.0
0
LINE
8
0
10
26.364431990026713
20
-6.610659977989471
30
0.0
11
18.325609796406685
21
4.849228331412904
31
0.0
0
LINE
8
0
10
18.325609796406685
20
4.849228331412904
30
0.0
11
25.0
21
0.0
31
0.0
0
LINE
8
0
10
25.0
20
0.0
30
0.0
11
18.325609796406685
21
4.849228331412904
31
0.0
0
LINE
8
0
10
18.325609796406685
20
4.849228331412904
30
0.0
11
28.34045821238953
21
-5.86547857649138
31
0.0
0
LINE
8
0
10
28.34045821238953
20
-5.86547857649138
30
0.0
11
17.153783740564982
21
2.549390203593317
31
0.0
0
LINE
8
0
10
17.153783740564982
20
2.549390203593317
30
0.0
11
25.0
21
0.0
31
0.0
0
LINE
8
0
10
25.0
20
0.0
30
0.0
11
17.153783740564982
21
2.549390203593317
31
0.0
0
LINE
8
0
10
17.153783740564982
20
2.549390203593317
30
0.0
11
29.989497110582732
21
-4.5461432647340265
31
0.0
0
LINE
8
0
10
29.989497110582732
20
-4.5461432647340265
30
0.0
11
16.75
21
1.0103336092965664E-15
31
0.0
0
LINE
8
0
10
16.75
20
1.0103336092965664E-15
30
0.0
11
25.0
21
0.0
31
0.0
0
LINE
8
0
10
25.0
20
0.0
30
0.0
11
16.75
21
1.0103336092965664E-15
31
0.0
0
LINE
8
0
10
16.75
20
1.0103336092965664E-15
30
0.0
11
31.150129267721567
21
-2.7817997753818577
31
0.0
0
LINE
8
0
10
31.150129267721567
20
-2.7817997753818577
30
0.0
11
17.153783740564982
21
-2.549390203593315
31
0.0
0
LINE
8
0
10
17.153783740564982
20
-2.549390203593315
30
0.0
11
25.0
21
0.0
31
0.0
0
LINE
8
0
10
25.0
20
0.0
30
0.0
11
17.153783740564982
21
-2.549390203593315
31
0.0
0
LINE
8
0
10
17.153783740564982
20
-2.549390203593315
30
0.0
11
31.708743921665544
21
-0.7451543420765946
31
0.0
0
LINE
8
0
10
31.708743921665544
20
-0.7451543420765946
30
0.0
11
18.32560979640668
21
-4.8492283314129025
31
0.0
0
LINE
8
0
10
18.32560979640668
20
-4.8492283314129025
30
0.0
11
25.0
21
0.0
31
0.0
0
LINE
8
0
10
25.0
20
0.0
30
0.0
11
18.32560979640668
21
-4.8492283314129025
31
0.0
0
LINE
8
0
10
18.32560979640668
20
-4.8492283314129025
30
0.0
11
31.61065997798947
21
1.3644319900267112
31
0.0
0
LINE
8
0
10
31.61065997798947
20
1.3644319900267112
30
0.0
11
20.150771668587097
21
-6.674390203593315
31
0.0
0
LINE
8
0
10
20.150771668587097
20
-6.674390203593315
30
0.0
11
25.0
21
0.0
31
0.0
0
LINE
8
0
10
25.0
20
0.0
30
0.0
11
20.150771668587097
21
-6.674390203593315
31
0.0
0
LINE
8
0
10
20.150771668587097
20
-6.674390203593315
30
0.0
11
30.86547857649138
21
3.34045821238953
31
0.0
0
LINE
8
0
10
30.86547857649138
20
3.34045821238953
30
0.0
11
22.45060979640668
21
-7.846216259435017
31
0.0
0
LINE
8
0
10
22.45060979640668
20
-7.846216259435017
30
0.0
11
25.0
21
0.0
31
0.0
0
LINE
8
0
10
25.0
20
0.0
30
0.0
11
22.45060979640668
21
-7.846216259435017
31
0.0
0
LINE
8
0
10
22.45060979640668
20
-7.846216259435017
30
0.0
11
29.546143264734027
21
4.989497110582733
31
0.0
0
LINE
8
0
10
29.546143264734027
20
4.989497110582733
30
0.0
11
25.0
21
-8.25
31
0.0
0
LINE
8
0
10
25.0
20
-8.25
30
0.0
11
25.0
21
0.0
31
0.0
0
LINE
8
0
10
25.0
20
0.0
30
0.0
11
25.0
21
-8.25
31
0.0
0
LINE
8
0
10
25.0
20
-8.25
30
0.0
11
27.78179977538186
21
6.150129267721569
31
0.0
0
LINE
8
0
10
27.78179977538186
20
6.150129267721569
30
0.0
11
27.549390203593315
21
-7.8462162594350175
31
0.0
0
LINE
8
0
10
27.549390203593315
20
-7.8462162594350175
30
0.0
11
25.0
21
0.0
31
0.0
0
LINE
8
0
10
25.0
20
0.0
30
0.0
11
27.549390203593315
21
-7.8462162594350175
31
0.0
0
LINE
8
0
10
27.549390203593315
20
-7.8462162594350175
30
0.0
11
25.745154342076596
21
6.708743921665545
31
0.0
0
LINE
8
0
10
25.745154342076596
20
6.708743921665545
30
0.0
11
29.849228331412903
21
-6.674390203593317
31
0.0
0
LINE
8
0
10
29.849228331412903
20
-6.674390203593317
30
0.0
11
25.0
21
0.0
31
0.0
0
LINE
8
0
10
25.0
20
0.0
30
0.0
11
29.849228331412903
21
-6.674390203593317
31
0.0
0
LINE
8
0
10
29.849228331412903
20
-6.674390203593317
30
0.0
11
23.63556800997329
21
6.610659977989471
31
0.0
0
LINE
8
0
10
23.63556800997329
20
6.610659977989471
30
0.0
11
31.674390203593315
21
-4.849228331412905
31
0.0
0
LINE
8
0
10
31.674390203593315
20
-4.849228331412905
30
0.0
11
25.0
21
0.0
31
0.0
0
LINE
8
0
10
25.0
20
0.0
30
0.0
11
31.674390203593315
21
-4.849228331412905
31
0.0
0
LINE
8
0
10
31.674390203593315
20
-4.849228331412905
30
0.0
11
21.659541787610472
21
5.86547857649138
31
0.0
0
LINE
8
0
10
21.659541787610472
20
5.86547857649138
30
0.0
11
32.84621625943502
21
-2.549390203593318
31
0.0
0
LINE
8
0
10
32.84621625943502
20
-2.549390203593318
30
0.0
11
25.0
21
0.0
31
0.0
0
LINE
8
0
10
25.0
20
0.0
30
0.0
11
32.84621625943502
21
-2.549390203593318
31
0.0
0
LINE
8
0
10
32.84621625943502
20
-2.549390203593318
30
0.0
11
20.010502889417268
21
4.5461432647340265
31
0.0
0
LINE
8
0
10
20.010502889417268
20
4.5461432647340265
30
0.0
11
33.25
21
-2.0206672185931327E-15
31
0.0
0
LINE
8
0
10
33.25
20
-2.0206672185931327E-15
30
0.0
11
25.0
21
0.0
31
0.0
0
LINE
8
0
10
45.0
20
0.0
30
0.0
11
50.5
21
0.0
31
0.0
0
LINE
8
0
10
50.5
20
0.0
30
0.0
11
40.89991382151895
21
1.8545331835879046
31
0.0
0
LINE
8
0
10
40.89991382151895
20
1.8545331835879046
30
0.0
11
50.230810839623345
21
1.6995934690622108
31
0.0
0
LINE
8
0
10
50.230810839623345
20
1.6995934690622108
30
0.0
11
45.0
21
0.0
31
0.0
0
LINE
8
0
10
45.0
20
0.0
30
0.0
11
50.230810839623345
21
1.6995934690622108
31
0.0
0
LINE
8
0
10
50.230810839623345
20
1.6995934690622108
30
0.0
11
40.52750405222297
21
0.4967695613843958
31
0.0
0
LINE
8
0
10
40.52750405222297
20
0.4967695613843958
30
0.0
11
49.44959346906221
21
3.232818887608602
31
0.0
0
LINE
8
0
10
49.44959346906221
20
3.232818887608602
30
0.0
11
45.0
21
0.0
31
0.0
0
LINE
8
0
10
45.0
20
0.0
30
0.0
11
49.44959346906221
21
3.232818887608602
31
0.0
0
LINE
8
0
10
49.44959346906221
20
3.232818887608602
30
0.0
11
40.59289334800702
21
-0.9096213266844746
31
0.0
0
LINE
8
0
10
40.59289334800702
20
-0.9096213266844746
30
0.0
11
48.2328188876086
21
4.449593469062211
31
0.0
0
LINE
8
0
10
48.2328188876086
20
4.449593469062211
30
0.0
11
45.0
21
0.0
31
0.0
0
LINE
8
0
10
45.0
20
0.0
30
0.0
11
48.2328188876086
21
4.449593469062211
31
0.0
0
LINE
8
0
10
48.2328188876086
20
4.449593469062211
30
0.0
11
41.089680949005746
21
-2.2269721415930204
31
0.0
0
LINE
8
0
10
41.089680949005746
20
-2.2269721415930204
30
0.0
11
46.69959346906221
21
5.230810839623344
31
0.0
0
LINE
8
0
10
46.69959346906221
20
5.230810839623344
30
0.0
11
45.0
21
0.0
31
0.0
0
LINE
8
0
10
45.0
20
0.0
30
0.0
11
46.69959346906221
21
5.230810839623344
31
0.0
0
LINE
8
0
10
46.69959346906221
20
5.230810839623344
30
0.0
11
41.96923782351065
21
-3.3263314070551564
31
0.0
0
LINE
8
0
10
41.96923782351065
20
-3.3263314070551564
30
0.0
11
45.0
21
5.5
31
0.0
0
LINE
8
0
10
45.0
20
5.5
30
0.0
11
45.0
21
0.0
31
0.0
0
LINE
8
0
10
45.0
20
0.0
30
0.0
11
45.0
21
5.5
31
0.0
0
LINE
8
0
10
45.0
20
5.5
30
0.0
11
43.145466816412096
21
-4.100086178481046
31
0.0
0
LINE
8
0
10
43.145466816412096
20
-4.100086178481046
30
0.0
11
43.30040653093779
21
5.230810839623345
31
0.0
0
LINE
8
0
10
43.30040653093779
20
5.230810839623345
30
0.0
11
45.0
21
0.0
31
0.0
0
LINE
8
0
10
45.0
20
0.0
30
0.0
11
43.30040653093779
21
5.230810839623345
31
0.0
0
LINE
8
0
10
43.30040653093779
20
5.230810839623345
30
0.0
11
44.5032304386156
21
-4.47249594777703
31
0.0
0
LINE
8
0
10
44.5032304386156
20
-4.47249594777703
30
0.0
11
41.7671811123914
21
4.449593469062211
31
0.0
0
LINE
8
0
10
41.7671811123914
20
4.449593469062211
30
0.0
11
45.0
21
0.0
31
0.0
0
LINE
8
0
10
45.0
20
0.0
30
0.0
11
41.7671811123914
21
4.449593469062211
31
0.0
0
LINE
8
0
10
41.7671811123914
20
4.449593469062211
30
0.0
11
45.90962132668447
21
-4.40710665199298
31
0.0
0
LINE
8
0
10
45.90962132668447
20
-4.40710665199298
30
0.0
11
40.55040653093779
21
3.232818887608603
31
0.0
0
LINE
8
0
10
40.55040653093779
20
3.232818887608603
30
0.0
11
45.0
21
0.0
31
0.0
0
LINE
8
0
10
45.0
20
0.0
30
0.0
11
40.55040653093779
21
3.232818887608603
31
0.0
0
LINE
8
0
10
40.55040653093779
20
3.232818887608603
30
0.0
11
47.22697214159302
21
-3.910319050994253
31
0.0
0
LINE
8
0
10
47.22697214159302
20
-3.910319050994253
30
0.0
11
39.769189160376655
21
1.6995934690622112
31
0.0
0
LINE
8
0
10
39.769189160376655
20
1.6995934690622112
30
0.0
11
45.0
21
0.0
31
0.0
0
LINE
8
0
10
45.0
20
0.0
30
0.0
11
39.769189160376655
21
1.6995934690622112
31
0.0
0
LINE
8
0
10
39.769189160376655
20
1.6995934690622112
30
0.0
11
48.32633140705516
21
-3.030762176489351
31
0.0
0
LINE
8
0
10
48.32633140705516
20
-3.030762176489351
30
0.0
11
39.5
21
6.735557395310443E-16
31
0.0
0
LINE
8
0
10
39.5
20
6.735557395310443E-16
30
0.0
11
45.0
21
0.0
31
0.0
0
LINE
8
0
10
45.0
20
0.0
30
0.0
11
39.5
21
6.735557395310443E-16
31
0.0
0
LINE
8
0
10
39.5
20
6.735557395310443E-16
30
0.0
11
49.10008617848105
21
-1.854533183587905
31
0.0
0
LINE
8
0
10
49.10008617848105
20
-1.854533183587905
30
0.0
11
39.769189160376655
21
-1.69959346906221
31
0.0
0
LINE
8
0
10
39.769189160376655
20
-1.69959346906221
30
0.0
11
45.0
21
0.0
31
0.0
0
LINE
8
0
10
45.0
20
0.0
30
0.0
11
39.769189160376655
21
-1.69959346906221
31
0.0
0
LINE
8
0
10
39.769189160376655
20
-1.69959346906221
30
0.0
11
49.47249594777703
21
-0.4967695613843964
31
0.0
0
LINE
8
0
10
49.47249594777703
20
-0.4967695613843964
30
0.0
11
40.55040653093779
21
-3.2328188876086017
31
0.0
0
LINE
8
0
10
40.55040653093779
20
-3.2328188876086017
30
0.0
11
45.0
21
0.0
31
0.0
0
LINE
8
0
10
45.0
20
0.0
30
0.0
11
40.55040653093779
21
-3.2328188876086017
31
0.0
0
LINE
8
0
10
40.55040653093779
20
-3.2328188876086017
30
0.0
11
49.40710665199298
21
0.9096213266844742
31
0.0
0
LINE
8
0
10
49.40710665199298
20
0.9096213266844742
30
0.0
11
41.7671811123914
21
-4.4495934690622105
31
0.0
0
LINE
8
0
10
41.7671811123914
20
-4.4495934690622105
30
0.0
11
45.0
21
0.0
31
0.0
0
LINE
8
0
10
45.0
20
0.0
30
0.0
11
41.7671811123914
21
-4.4495934690622105
31
0.0
0
LINE
8
0
10
41.7671811123914
20
-4.4495934690622105
30
0.0
11
48.910319050994254
21
2.22697214159302
31
0.0
0
LINE
8
0
10
48.910319050994254
20
2.22697214159302
30
0.0
11
43.300406530937785
21
-5.230810839623344
31
0.0
0
LINE
8
0
10
43.300406530937785
20
-5.230810839623344
30
0.0
11
45.0
21
0.0
31
0.0
0
LINE
8
0
10
45.0
20
0.0
30
0.0
11
43.300406530937785
21
-5.230810839623344
31
0.0
0
LINE
8
0
10
43.300406530937785
20
-5.230810839623344
30
0.0
11
48.030762176489354
21
3.326331407055156
31
0.0
0
LINE
8
0
10
48.030762176489354
20
3.326331407055156
30
0.0
11
45.0
21
-5.5
31
0.0
0
LINE
8
0
10
45.0
20
-5.5
30
0.0
11
45.0
21
0.0
31
0.0
0
LINE
8
0
10
45.0
20
0.0
30
0.0
11
45.0
21
-5.5
31
0.0
0
LINE
8
0
10
45.0
20
-5.5
30
0.0
11
46.854533183587904
21
4.100086178481046
31
0.0
0
LINE
8
0
10
46.854533183587904
20
4.100086178481046
30
0.0
11
46.69959346906221
21
-5.230810839623345
31
0.0
0
LINE
8
0
10
46.69959346906221
20
-5.230810839623345
30
0.0
11
45.0
21
0.0
31
0.0
0
LINE
8
0
10
45.0
20
0.0
30
0.0
11
46.69959346906221
21
-5.230810839623345
31
0.0
0
LINE
8
0
10
46.69959346906221
20
-5.230810839623345
30
0.0
11
45.4967695613844
21
4.47249594777703
31
0.0
0
LINE
8
0
10
45.4967695613844
20
4.47249594777703
30
0.0
11
48.2328188876086
21
-4.449593469062211
31
0.0
0
LINE
8
0
10
48.2328188876086
20
-4.449593469062211
30
0.0
11
45.0
21
0.0
31
0.0
0
LINE
8
0
10
45.0
20
0.0
30
0.0
11
48.2328188876086
21
-4.449593469062211
31
0.0
0
LINE
8
0
10
48.2328188876086
20
-4.449593469062211
30
0.0
11
44.09037867331553
21
4.40710665199298
31
0.0
0
LINE
8
0
10
44.09037867331553
20
4.40710665199298
30
0.0
11
49.44959346906221
21
-3.2328188876086035
31
0.0
0
LINE
8
0
10
49.44959346906221
20
-3.2328188876086035
30
0.0
11
45.0
21
0.0
31
0.0
0
LINE
8
0
10
45.0
20
0.0
30
0.0
11
49.44959346906221
21
-3.2328188876086035
31
0.0
0
LINE
8
0
10
49.44959346906221
20
-3.2328188876086035
30
0.0
11
42.773027858406984
21
3.910319050994253
31
0.0
0
LINE
8
0
10
42.773027858406984
20
3.910319050994253
30
0.0
11
50.230810839623345
21
-1.6995934690622119
31
0.0
0
LINE
8
0
10
50.230810839623345
20
-1.6995934690622119
30
0.0
11
45.0
21
0.0
31
0.0
0
LINE
8
0
10
45.0
20
0.0
30
0.0
11
50.230810839623345
21
-1.6995934690622119
31
0.0
0
LINE
8
0
10
50.230810839623345
20
-1.6995934690622119
30
0.0
11
41.67366859294484
21
3.030762176489351
31
0.0
0
LINE
8
0
10
41.67366859294484
20
3.030762176489351
30
0.0
11
50.5
21
-1.3471114790620886E-15
31
0.0
0
LINE
8
0
10
50.5
20
-1.3471114790620886E-15
30
0.0
11
45.0
21
0.0
31
0.0
0
ENDSEC
0
EOF
